##     ## ##    ## ####  #######  ##     ## ######## 
##     ## ###   ##  ##  ##     ## ##     ## ##       
##     ## ####  ##  ##  ##     ## ##     ## ##       
##     ## ## ## ##  ##  ##     ## ##     ## ######   
##     ## ##  ####  ##  ##  ## ## ##     ## ##       
##     ## ##   ###  ##  ##    ##  ##     ## ##       
 #######  ##    ## ####  ##### ##  #######  ######## 


#############Credits To DiNGiE & Unique#############


General
Complete name : Grave Encounters 2011 BRRip x264 AAC-UNiQUE.mp4
Format : MPEG-4
Format profile : Base Media
Codec ID : isom
File size : 1 021 MiB
Duration : 1h 33mn
Overall bit rate mode : Variable
Overall bit rate : 1 529 Kbps
Encoded date : UTC 2012-08-01 09:40:28

Video
ID : 1
Format : AVC
Format/Info : Advanced Video Codec
Format profile : High@L4.1
Format settings, CABAC : Yes
Format settings, ReFrames : 3 frames
Codec ID : avc1
Codec ID/Info : Advanced Video Coding
Duration : 1h 33mn
Bit rate mode : Variable
Bit rate : 1 206 Kbps
Maximum bit rate : 40.0 Mbps
Width : 720 pixels
Height : 400 pixels
Display aspect ratio : 16:9
Frame rate mode : Constant
Frame rate : 23.976 fps
Color space : YUV
Chroma subsampling : 4:2:0
Bit depth : 8 bits
Scan type : Progressive
Bits/(Pixel*Frame) : 0.175
Stream size : 805 MiB (79%)
Writing library : x264 core 125 r2208 d9d2288

Audio
ID : 2
Format : AAC
Format/Info : Advanced Audio Codec
Format profile : LC
Codec ID : 40
Duration : 1h 33mn
Bit rate mode : Variable
Bit rate : 320 Kbps
Maximum bit rate : 383 Kbps
Channel(s) : 6 channels
Channel positions : Front: L C R, Side: L R, LFE
Sampling rate : 48.0 KHz
Compression mode : Lossy
Stream size : 214 MiB (21%)
Language : English
Encoded date : UTC 2012-08-01 09:40:46

Sources : 720p.BluRay.X264-7SinS - Thanks!

Storyline
For their ghost hunting reality show, a production crew locks themselves inside an abandoned mental hospital that's supposedly haunted - and it might prove to be all too true.


IMDB: 
http://www.imdb.com/title/tt1703199


Screen Shots:
  
http://63.imagebam.com/download/qdIC1qnFCE2pCmJxLzJ-Fg/20418/204178915/4.jpg
 
http://66.imagebam.com/download/tkWzXK3A1e7IqhBu8G3y8Q/20418/204178914/3.jpg
 
http://58.imagebam.com/download/9Qcka816teOCOPSd5jdhgQ/20418/204178912/2.jpg
 
http://63.imagebam.com/download/UtLDnrRYLQ7YJkWYhbfzLg/20418/204178910/1.jpg


#############Credits To DiNGiE & Unique#############


##     ## ##    ## ####  #######  ##     ## ######## 
##     ## ###   ##  ##  ##     ## ##     ## ##       
##     ## ####  ##  ##  ##     ## ##     ## ##       
##     ## ## ## ##  ##  ##     ## ##     ## ######   
##     ## ##  ####  ##  ##  ## ## ##     ## ##       
##     ## ##   ###  ##  ##    ##  ##     ## ##       
 #######  ##    ## ####  ##### ##  #######  ######## 